# xmcd CD database file
#
# Track frame offsets:
#	150
#	2630
#	8280
#	21620
#	23807
#	38397
#	43512
#	54642
#
# Disc length: 878 seconds
#
# Revision: 1
# Processed by: cddbd v1.5.1PL0 Copyright (c) Steve Scherf et al.
# Submitted via: CDex 1.51
#
DISCID=4e036c08
DTITLE=AFRA - DIGITAL BREATH
DYEAR=2004
DGENRE=Hip-Hop
TTITLE0=SHOCHIN' SHOPPIN'
TTITLE1=SLICE MY BEAT NICE!
TTITLE2=SIMPL SAMPL
TTITLE3=OFF
TTITLE4=SOMEDAY (FEATURING VINIA MOJICA)
TTITLE5=OFFF
TTITLE6=SLICE MY TONGUE NICE!?
TTITLE7=DIGITAL BREATH
EXTD=YEAR: 2004
EXTT0=
EXTT1=
EXTT2=
EXTT3=
EXTT4=
EXTT5=
EXTT6=
EXTT7=
PLAYORDER=
